<?xml version="1.0" encoding="UTF-8"?>
<svg version="1.1" xmlns="http://www.w3.org/2000/svg" width="214" height="210">
<path d="M0 0 C0.66273926 0.2254248 1.32547852 0.45084961 2.00830078 0.68310547 C28.15672903 9.96198642 48.60854304 30.61191364 60.43359375 55.33203125 C70.47775227 78.85189372 73.10461617 107.45455075 64.31640625 131.80859375 C54.92907637 154.56660121 40.60388547 174.475048 19 187 C18.34 187 17.68 187 17 187 C16.67 187.66 16.34 188.32 16 189 C13.47283963 190.24885315 10.9646995 191.39672339 8.375 192.5 C7.67503906 192.80808594 6.97507813 193.11617187 6.25390625 193.43359375 C-5.39209683 198.4679513 -17.50976238 200.3071318 -30 202 C-31.17304687 202.22558594 -32.34609375 202.45117188 -33.5546875 202.68359375 C-37.37823414 203.03473579 -39.4435988 202.34063291 -43 201 C-45.24215701 200.61745188 -47.49348147 200.28589375 -49.75 200 C-59.02815121 198.72327961 -66.67449751 197.56427826 -74.96875 193.0234375 C-76.91859783 191.85001356 -76.91859783 191.85001356 -79 192 C-79 191.34 -79 190.68 -79 190 C-80.2375 189.62875 -80.2375 189.62875 -81.5 189.25 C-92 185.5 -92 185.5 -95 181 C-95.99 180.67 -96.98 180.34 -98 180 C-98 179.34 -98 178.68 -98 178 C-98.66 178 -99.32 178 -100 178 C-100 177.34 -100 176.68 -100 176 C-100.99 176 -101.98 176 -103 176 C-104.71875 174.35546875 -104.71875 174.35546875 -106.5 172.1875 C-108.91456716 169.25843127 -108.91456716 169.25843127 -111.53125 166.515625 C-113.31011013 164.67999274 -114.61128784 162.70704769 -116 160.5625 C-117.50132417 158.25186827 -118.99055173 156.01209466 -120.6875 153.83984375 C-122 152 -122 152 -122 150 C-122.66 149.67 -123.32 149.34 -124 149 C-125.21298166 146.76524561 -126.31648561 144.55698951 -127.375 142.25 C-127.68590576 141.57477295 -127.99681152 140.8995459 -128.31713867 140.20385742 C-139.03519927 116.37384048 -140.71367345 87.67180077 -132.0625 62.8125 C-130.28446263 58.41527682 -128.18015773 54.20995976 -126 50 C-125.67 49.01 -125.34 48.02 -125 47 C-124.34 47 -123.68 47 -123 47 C-122.731875 46.071875 -122.46375 45.14375 -122.1875 44.1875 C-121.053317 41.14311405 -120.30315842 40.10288378 -118 38 C-117.67 37.01 -117.34 36.02 -117 35 C-116.34 35 -115.68 35 -115 35 C-114.72704102 34.40469482 -114.45408203 33.80938965 -114.17285156 33.19604492 C-105.38812171 16.7475343 -83.26484617 5.20736994 -66.15234375 -0.28515625 C-45.90803867 -6.22433723 -20.14862843 -6.9942853 0 0 Z M-87 33 C-87.7734375 33.62003906 -88.546875 34.24007812 -89.34375 34.87890625 C-104.71739584 47.76145207 -115.21439388 66.92423801 -117 87 C-118.3119539 108.01533494 -115.34963862 126.93746536 -104 145 C-100.32164701 143.49896806 -98.40833378 141.39443473 -95.875 138.375 C-80.68661734 121.15157261 -59.67057577 112.51733123 -37.05859375 110.6796875 C-14.90851115 110.01980421 6.41811786 117.61348566 22.65332031 132.73608398 C27.03543523 136.92141876 31.10361796 141.3587214 35 146 C37.58777208 142.94419026 37.58777208 142.94419026 38 139 C38.66 139 39.32 139 40 139 C50.55830835 113.59230611 52.99274185 88.18056039 42.46484375 62.1328125 C40.13241585 57.14452669 37.43533975 52.31797112 34 48 C33.34 48 32.68 48 32 48 C31.67 46.68 31.34 45.36 31 44 C30.34 44 29.68 44 29 44 C28.73960937 43.41605469 28.47921875 42.83210938 28.2109375 42.23046875 C26.92216506 39.85663306 25.5249146 38.22485946 23.625 36.3125 C23.03976563 35.71050781 22.45453125 35.10851562 21.8515625 34.48828125 C19.87391086 32.89864987 18.4785821 32.4094574 16 32 C16 31.34 16 30.68 16 30 C13.18490007 27.7226499 13.18490007 27.7226499 10 28 C10 27.34 10 26.68 10 26 C-20.84070543 10.01849908 -59.57360611 9.23433241 -87 33 Z M-75 158 C-76.65 161.63 -78.3 165.26 -80 169 C-72.39866487 173.40134778 -64.92131117 177.34517822 -56.5 179.9375 C-55.85482422 180.13625732 -55.20964844 180.33501465 -54.54492188 180.53979492 C-48.22008445 182.38181389 -42.13530724 183.13635177 -35.5625 183.0625 C-34.51191406 183.05347656 -33.46132812 183.04445312 -32.37890625 183.03515625 C-31.20134766 183.01775391 -31.20134766 183.01775391 -30 183 C-33.02453967 180.98364022 -35.63075348 179.96753498 -39.0625 178.8125 C-40.12597656 178.44769531 -41.18945312 178.08289063 -42.28515625 177.70703125 C-44.94244385 176.69697361 -44.94244385 176.69697361 -47 178 C-47 177.34 -47 176.68 -47 176 C-47.75925781 175.59007812 -48.51851562 175.18015625 -49.30078125 174.7578125 C-50.29464844 174.21898437 -51.28851563 173.68015625 -52.3125 173.125 C-53.29863281 172.59132812 -54.28476563 172.05765625 -55.30078125 171.5078125 C-58 170 -58 170 -61 168 C-61.99 168 -62.98 168 -64 168 C-64 167.34 -64 166.68 -64 166 C-65.5910643 164.56197818 -67.2486015 163.19674665 -68.9375 161.875 C-69.85402344 161.15054688 -70.77054688 160.42609375 -71.71484375 159.6796875 C-73.66161306 157.90129017 -73.66161306 157.90129017 -75 158 Z " fill="#197CB1" transform="translate(142,6)"/>
<path d="M0 0 C7.28286707 6.74439261 10.58135186 14.62290437 10.98828125 24.45703125 C10.86992822 33.3483026 7.26523986 40.50802588 1.17578125 46.89453125 C0.37140625 47.65765625 -0.43296875 48.42078125 -1.26171875 49.20703125 C-1.73480469 49.71621094 -2.20789063 50.22539063 -2.6953125 50.75 C-9.03304674 56.64519918 -20.12172474 56.48818236 -28.26171875 56.20703125 C-30.27994277 55.59775607 -32.2858816 54.94222647 -34.26171875 54.20703125 C-34.26171875 53.54703125 -34.26171875 52.88703125 -34.26171875 52.20703125 C-35.91171875 51.87703125 -37.56171875 51.54703125 -39.26171875 51.20703125 C-39.26171875 50.54703125 -39.26171875 49.88703125 -39.26171875 49.20703125 C-39.85855469 48.94277344 -40.45539063 48.67851563 -41.0703125 48.40625 C-47.66080709 44.79968701 -50.62306362 37.99338549 -52.953125 31.1875 C-54.84165902 24.5954473 -53.71418746 18.81017746 -52.26171875 12.20703125 C-51.60171875 12.20703125 -50.94171875 12.20703125 -50.26171875 12.20703125 C-49.99359375 11.29953125 -49.72546875 10.39203125 -49.44921875 9.45703125 C-48.36040243 6.47711291 -47.39780774 4.52112766 -45.26171875 2.20703125 C-44.60171875 2.20703125 -43.94171875 2.20703125 -43.26171875 2.20703125 C-43.26171875 1.54703125 -43.26171875 0.88703125 -43.26171875 0.20703125 C-30.01723549 -10.16311734 -13.23031153 -10.48827806 0 0 Z " fill="#187CB2" transform="translate(129.26171875,50.79296875)"/>
<path d="M0 0 C0.33 0.66 0.66 1.32 1 2 C0.1494941 4.34188596 -0.76018789 6.59281559 -1.75 8.875 C-4.50503625 15.4657905 -6.52940932 21.99617962 -8 29 C-8.17128418 29.75498779 -8.34256836 30.50997559 -8.51904297 31.2878418 C-11.11525968 45.92813189 -9.8268947 62.29832696 -5.875 76.55859375 C-5.10985519 79.56793563 -4.81035078 81.92412668 -5 85 C-15.49044229 64.7425942 -14.1364728 38.11505015 -8.05078125 16.65234375 C-3.4596519 3.4596519 -3.4596519 3.4596519 0 0 Z " fill="#D4DEDB" transform="translate(17,55)"/>
<path d="M0 0 C0.67869141 0.23605957 1.35738281 0.47211914 2.05664062 0.71533203 C12.53467309 4.52307063 21.23188645 10.19101182 30 17 C29.34 17.33 28.68 17.66 28 18 C26.35522461 17.16723633 26.35522461 17.16723633 24.40234375 15.83203125 C23.68240234 15.35056641 22.96246094 14.86910156 22.22070312 14.37304688 C21.46724609 13.85806641 20.71378906 13.34308594 19.9375 12.8125 C-1.19744556 -1.60877164 -26.94485951 -4.89605851 -52 -1 C-54.6793948 -0.89248014 -57.31632049 -0.9529179 -60 -1 C-45.62569107 -9.29287053 -14.99190948 -5.2366424 0 0 Z " fill="#8FB5C8" transform="translate(142,6)"/>
<path d="M0 0 C-1.34578125 0.51046875 -1.34578125 0.51046875 -2.71875 1.03125 C-19.97782497 7.68608368 -34.13418609 15.12417371 -47.4375 28.1875 C-47.94635742 28.68668945 -48.45521484 29.18587891 -48.97949219 29.70019531 C-51.84665089 32.59431186 -54.0171083 35.45134931 -56 39 C-56.680625 39.825 -57.36125 40.65 -58.0625 41.5 C-59.96205445 43.95103799 -61.00012342 46.08369331 -62 49 C-62.99 48.67 -63.98 48.34 -65 48 C-64.01 47.505 -64.01 47.505 -63 47 C-62.690625 46.05125 -62.38125 45.1025 -62.0625 44.125 C-61.01972071 41.05800208 -60.29768756 40.09788864 -58 38 C-57.67 37.01 -57.34 36.02 -57 35 C-56.34 35 -55.68 35 -55 35 C-54.59056152 34.10704224 -54.59056152 34.10704224 -54.17285156 33.19604492 C-45.20939283 16.41288269 -23.61529685 6.35601751 -6.8125 -0.25390625 C-3.98578563 -1.00377076 -2.68756594 -1.03367921 0 0 Z " fill="#A6C2CE" transform="translate(82,6)"/>
<path d="M0 0 C0.495 0.268125 0.99 0.53625 1.5 0.8125 C1.5 1.4725 1.5 2.1325 1.5 2.8125 C-2.05091137 1.87042147 -5.22960378 0.93942068 -8.5625 -0.625 C-18.71010318 -5.00590357 -28.96773772 -5.51456673 -39.8347168 -5.16479492 C-40.65625244 -5.14263916 -41.47778809 -5.1204834 -42.32421875 -5.09765625 C-43.05729248 -5.06808838 -43.79036621 -5.03852051 -44.5456543 -5.00805664 C-46.5 -5.1875 -46.5 -5.1875 -49.5 -7.1875 C-34.26700429 -12.26516524 -14.01363253 -6.65647545 0 0 Z " fill="#9ABCCC" transform="translate(146.5,27.1875)"/>
<path d="M0 0 C8.3414792 0.33046844 15.80313657 1.04459426 23.859375 3.30078125 C29.82134086 4.62813435 35.90998227 4.75872881 42 5 C38.30149777 6.9703811 35.21781742 7.70911604 31 8 C28.99722813 7.3417073 26.9975446 6.67398815 25 6 C22.75784299 5.61745188 20.50651853 5.28589375 18.25 5 C13.87960325 4.40677541 9.52552956 3.79894645 5.1875 3 C4.39730469 2.855625 3.60710937 2.71125 2.79296875 2.5625 C2.20128906 2.376875 1.60960938 2.19125 1 2 C0.67 1.34 0.34 0.68 0 0 Z " fill="#5494BD" transform="translate(74,201)"/>
<path d="M0 0 C3.27132865 3.57127856 4.18329966 7.57875414 5.1875 12.1875 C5.36112061 12.97616455 5.53474121 13.7648291 5.71362305 14.57739258 C7.83603575 25.0498374 7.67983359 35.47031138 6 46 C3.81279261 42.71918892 3.78032893 41.93862112 3.91015625 38.16796875 C3.93215088 37.21075928 3.95414551 36.2535498 3.97680664 35.26733398 C4.01922485 33.74281616 4.01922485 33.74281616 4.0625 32.1875 C4.20619196 22.91106499 3.3835941 14.97861614 1 6 C0.64605148 4.00354525 0.30674265 2.0042505 0 0 Z " fill="#D5DEDA" transform="translate(186,72)"/>
<path d="M0 0 C0.99 0.33 1.98 0.66 3 1 C2.57589844 1.63164063 2.15179688 2.26328125 1.71484375 2.9140625 C-3.1568452 10.34472653 -7.16113546 18.00722733 -11 26 C-12.16909807 22.49270578 -11.85056945 20.55692677 -11 17 C-10.34 16.67 -9.68 16.34 -9 16 C-8.30741771 14.00882592 -7.64252365 12.0078864 -7 10 C-6.34 9.01 -5.68 8.02 -5 7 C-4.34 7 -3.68 7 -3 7 C-2.87625 6.21625 -2.7525 5.4325 -2.625 4.625 C-2 2 -2 2 0 0 Z " fill="#4D90BA" transform="translate(41,49)"/>
<path d="M0 0 C1.78125 2.16796875 1.78125 2.16796875 3 4 C0.87479164 2.9544952 -1.20945946 1.88102991 -3.26953125 0.7109375 C-10.99124371 -3.34563033 -18.35451306 -4.19798895 -27 -3 C-28.67305069 -2.01071785 -30.34082347 -1.0123789 -32 0 C-34.3125 -0.3125 -34.3125 -0.3125 -36 -1 C-24.24106859 -7.56667598 -11.36033433 -7.86321648 0 0 Z " fill="#A2C1D0" transform="translate(127,49)"/>
<path d="M0 0 C0.76136084 2.28408251 1.05265767 3.74423416 0.5625 6.125 C-1.05083638 14.3709415 -0.58926615 23.34501449 4.125 30.5 C4.74375 31.325 5.3625 32.15 6 33 C5.67 33.66 5.34 34.32 5 35 C-0.7078483 27.68508762 -4.4748332 20.04896202 -3.73046875 10.56640625 C-3.25697909 7.67437227 -2.70107131 4.84463466 -2 2 C-1.34 2 -0.68 2 0 2 C0 1.34 0 0.68 0 0 Z " fill="#A8C4D1" transform="translate(79,61)"/>
<path d="M0 0 C11.11672076 1.6446085 21.36805811 9.21775994 30 16 C29.34 16.33 28.68 16.66 28 17 C26.35522461 16.16723633 26.35522461 16.16723633 24.40234375 14.83203125 C23.68240234 14.35056641 22.96246094 13.86910156 22.22070312 13.37304688 C21.46724609 12.85806641 20.71378906 12.34308594 19.9375 11.8125 C14.73431159 8.2621434 9.70396491 5.23172676 3.84985352 2.8659668 C2 2 2 2 0 0 Z " fill="#A9C4D0" transform="translate(142,7)"/>
<path d="M0 0 C0.33 0 0.66 0 1 0 C1.25199804 13.91589195 1.45816789 27.62549634 -3 41 C-3.33 41 -3.66 41 -4 41 C-4.1831111 35.68977816 -3.78539723 32.0411216 -2 27 C-1.10674688 21.00994964 -0.72076192 15.04601678 -0.4375 9 C-0.39431641 8.12988281 -0.35113281 7.25976562 -0.30664062 6.36328125 C-0.20175782 4.24231781 -0.10049925 2.12117567 0 0 Z " fill="#97BACC" transform="translate(210,95)"/>
<path d="M0 0 C0.33 0 0.66 0 1 0 C1.3977529 7.09562759 0.270737 12.06357055 -2.5 18.5625 C-2.83386719 19.38041016 -3.16773438 20.19832031 -3.51171875 21.04101562 C-4.32719647 23.0331112 -5.16163136 25.01742926 -6 27 C-6.66 27 -7.32 27 -8 27 C-5.99793158 20.28093706 -3.94828995 13.57783201 -1.8671875 6.8828125 C-1.17949584 4.59670239 -0.54968959 2.32215806 0 0 Z " fill="#B7CDD5" transform="translate(190,118)"/>
<path d="M0 0 C0.86625 0.4640625 0.86625 0.4640625 1.75 0.9375 C3.8990629 2.06838971 3.8990629 2.06838971 6 2.375 C8.79784765 3.24932739 10.0287877 4.84958658 12 7 C12.9075 7.9075 13.815 8.815 14.75 9.75 C15.4925 10.4925 16.235 11.235 17 12 C14 12 14 12 11 11 C11 10.34 11 9.68 11 9 C10.12601563 8.59974609 10.12601563 8.59974609 9.234375 8.19140625 C6.95523863 6.97613248 5.19537168 5.62930828 3.25 3.9375 C2.63640625 3.41027344 2.0228125 2.88304687 1.390625 2.33984375 C0.93171875 1.89769531 0.4728125 1.45554688 0 1 C0 0.67 0 0.34 0 0 Z " fill="#629CBF" transform="translate(67,163)"/>
<path d="M0 0 C0 3 0 3 -1.3125 4.375 C-1.869375 4.91125 -2.42625 5.4475 -3 6 C-4.0064275 7.66279327 -5.00585407 9.32983484 -6 11 C-6.680625 11.825 -7.36125 12.65 -8.0625 13.5 C-9.96205445 15.95103799 -11.00012342 18.08369331 -12 21 C-12.99 20.67 -13.98 20.34 -15 20 C-14.34 19.67 -13.68 19.34 -13 19 C-12.690625 18.05125 -12.38125 17.1025 -12.0625 16.125 C-11.01972071 13.05800208 -10.29768756 12.09788864 -8 10 C-7.67 9.01 -7.34 8.02 -7 7 C-6.34 7 -5.68 7 -5 7 C-4.731875 6.401875 -4.46375 5.80375 -4.1875 5.1875 C-3.01506533 3.02775192 -1.80630718 1.64209744 0 0 Z " fill="#BBD0D6" transform="translate(32,34)"/>
<path d="M0 0 C2.9473614 1.9649076 3.53472991 2.56985674 5.0078125 5.5546875 C5.35457031 6.25207031 5.70132812 6.94945312 6.05859375 7.66796875 C6.41050781 8.39628906 6.76242188 9.12460938 7.125 9.875 C7.48464844 10.59558594 7.84429688 11.31617188 8.21484375 12.05859375 C9.83913327 15.36192411 11.1986733 18.39152885 12 22 C10.62437146 20.71034824 9.29233607 19.37310707 8 18 C8 17.34 8 16.68 8 16 C7.34 15.67 6.68 15.34 6 15 C4.89094879 12.88820561 3.860073 10.73489529 2.875 8.5625 C2.33617187 7.38816406 1.79734375 6.21382812 1.2421875 5.00390625 C0 2 0 2 0 0 Z " fill="#A7C4D1" transform="translate(12,140)"/>
<path d="M0 0 C0.33 0 0.66 0 1 0 C1.6732656 2.89444095 2.33880404 5.79030013 3 8.6875 C3.28617188 9.91243164 3.28617188 9.91243164 3.578125 11.16210938 C4.48733916 15.17239326 5.27000098 18.85717252 5 23 C3.5420162 20.222888 2.41215203 17.48008789 1.4375 14.5 C1.18871094 13.7471875 0.93992187 12.994375 0.68359375 12.21875 C-0.73068476 7.62840605 -0.98257922 4.80372063 0 0 Z " fill="#C2D3D6" transform="translate(7,117)"/>
<path d="M0 0 C0.99 0.33 1.98 0.66 3 1 C1.85845641 2.83600745 0.71165684 4.66874805 -0.4375 6.5 C-1.07558594 7.5209375 -1.71367188 8.541875 -2.37109375 9.59375 C-2.90863281 10.3878125 -3.44617187 11.181875 -4 12 C-4.33 12 -4.66 12 -5 12 C-5 10.35 -5 8.7 -5 7 C-4.34 7 -3.68 7 -3 7 C-2.87625 6.21625 -2.7525 5.4325 -2.625 4.625 C-2 2 -2 2 0 0 Z " fill="#5B99BF" transform="translate(41,49)"/>
<path d="M0 0 C0.66 0.33 1.32 0.66 2 1 C-0.31 4.3 -2.62 7.6 -5 11 C-5.33 9.68 -5.66 8.36 -6 7 C-5.34 7 -4.68 7 -4 7 C-3.896875 6.21625 -3.79375 5.4325 -3.6875 4.625 C-3 2 -3 2 0 0 Z " fill="#5C99BE" transform="translate(195,156)"/>
<path d="M0 0 C5.61 0 11.22 0 17 0 C11.90658874 2.54670563 8.13334006 3.58182002 2.5625 2.0625 C1.716875 1.711875 0.87125 1.36125 0 1 C0 0.67 0 0.34 0 0 Z " fill="#F0F3F6" transform="translate(99,206)"/>
<path d="M0 0 C3.57231298 5.35846947 3.12223971 10.765775 3 17 C2.67 17 2.34 17 2 17 C-1.2972561 2.5945122 -1.2972561 2.5945122 0 0 Z " fill="#68A0C1" transform="translate(137,63)"/>
<path d="M0 0 C1 3 1 3 0.00390625 5.26171875 C-0.47175781 6.06222656 -0.94742188 6.86273438 -1.4375 7.6875 C-2.14712891 8.89986328 -2.14712891 8.89986328 -2.87109375 10.13671875 C-3.24363281 10.75160156 -3.61617187 11.36648437 -4 12 C-4.66 10.68 -5.32 9.36 -6 8 C-5.01 7.67 -4.02 7.34 -3 7 C-3 5.35 -3 3.7 -3 2 C-2.34 2 -1.68 2 -1 2 C-0.67 1.34 -0.34 0.68 0 0 Z " fill="#5C99BF" transform="translate(138,82)"/>
<path d="M0 0 C0.66 0.99 1.32 1.98 2 3 C0.35 5.97 -1.3 8.94 -3 12 C-4.33332095 9.3333581 -3.67102033 7.83319697 -3 5 C-2.34 5 -1.68 5 -1 5 C-0.67 3.35 -0.34 1.7 0 0 Z " fill="#659EC2" transform="translate(65,163)"/>
<path d="M0 0 C0.886875 0.12375 1.77375 0.2475 2.6875 0.375 C2.048125 0.66375 1.40875 0.9525 0.75 1.25 C-1.46456079 2.20323451 -1.46456079 2.20323451 -2.3125 4.375 C-4.29138961 5.10193904 -6.29204558 5.77316251 -8.3125 6.375 C-4.12788462 0.46730769 -4.12788462 0.46730769 0 0 Z " fill="#7DABC9" transform="translate(160.3125,190.625)"/>
<path d="M0 0 C2.61724095 2.36797991 4.32861729 4.89600354 6 8 C6 8.66 6 9.32 6 10 C5.34 10 4.68 10 4 10 C4 9.01 4 8.02 4 7 C2.68 6.67 1.36 6.34 0 6 C0 4.02 0 2.04 0 0 Z " fill="#7CAAC6" transform="translate(194,48)"/>
<path d="M0 0 C6.57142857 4 6.57142857 4 8 8 C5.125 7.375 5.125 7.375 2 6 C0.625 2.875 0.625 2.875 0 0 Z " fill="#3F8AB9" transform="translate(76,168)"/>
<path d="M0 0 C4.43458973 1.3937282 6.87378374 3.60582235 10 7 C5.58738468 5.79655946 2.95916118 4.52823064 0 1 C0 0.67 0 0.34 0 0 Z " fill="#98BBCF" transform="translate(47,186)"/>
<path d="M0 0 C3.37503669 1.1858237 5.64722731 2.27573689 8 5 C5.69 4.67 3.38 4.34 1 4 C0.67 2.68 0.34 1.36 0 0 Z " fill="#72A6C5" transform="translate(149,127)"/>
<path d="M0 0 C3.7952131 1.49097658 5.61042731 3.75700849 8 7 C7.1646875 6.566875 7.1646875 6.566875 6.3125 6.125 C3.91505355 4.9586747 1.48403061 3.9660119 -1 3 C-0.67 2.01 -0.34 1.02 0 0 Z " fill="#92B8CA" transform="translate(172,24)"/>
<path d="M0 0 C0.99 0.33 1.98 0.66 3 1 C1.35 2.98 -0.3 4.96 -2 7 C-2.33 5.68 -2.66 4.36 -3 3 C-2.01 3 -1.02 3 0 3 C0 2.01 0 1.02 0 0 Z " fill="#619CBF" transform="translate(176,177)"/>
<path d="M0 0 C-2.55991624 2.01136276 -5.04590299 3.62845496 -8 5 C-8 3.68 -8 2.36 -8 1 C-5.29120665 -0.35439668 -2.99066732 -0.06501451 0 0 Z " fill="#659FC0" transform="translate(70,29)"/>
<path d="" fill="#FEFEFE" transform="translate(0,0)"/>
</svg>
