<?xml version="1.0" encoding="UTF-8"?>
<svg version="1.1" xmlns="http://www.w3.org/2000/svg" width="256" height="256">
<path d="M0 0 C0.72928711 0.20898926 1.45857422 0.41797852 2.20996094 0.63330078 C18.9072838 5.60673363 33.71540687 13.79057028 47 25 C47.89332031 25.7528125 48.78664062 26.505625 49.70703125 27.28125 C73.50905541 48.04860748 89.72166152 77.39620432 93 109 C95.42239991 146.20411192 86.5748794 179.89917488 62.1171875 208.4140625 C45.32761233 227.41555374 24.51681 240.48393467 0.3125 247.8125 C-0.32743896 248.00755127 -0.96737793 248.20260254 -1.62670898 248.40356445 C-12.69410476 251.54883037 -23.85287214 252.36509157 -35.3125 252.3125 C-36.58633545 252.30758545 -37.8601709 252.3026709 -39.17260742 252.29760742 C-48.46820942 252.18198311 -56.99854395 251.45946863 -66 249 C-67.90265625 248.50693359 -67.90265625 248.50693359 -69.84375 248.00390625 C-91.12359533 242.1350548 -109.11105733 231.18276744 -125 216 C-125.72316406 215.35160156 -126.44632813 214.70320312 -127.19140625 214.03515625 C-143.92868919 198.43564926 -154.32618065 176.89426762 -160 155 C-160.31839844 153.8346875 -160.63679687 152.669375 -160.96484375 151.46875 C-168.06324854 120.85074591 -162.43423528 85.60002977 -146.09765625 58.74414062 C-127.28875973 28.85740648 -100.25264047 7.9785941 -66 -1 C-64.84371094 -1.3196875 -63.68742187 -1.639375 -62.49609375 -1.96875 C-42.43250437 -6.64376112 -19.74549221 -5.69329813 0 0 Z M-98.9609375 52.65625 C-99.42757812 53.2646875 -99.89421875 53.873125 -100.375 54.5 C-100.85710937 55.1084375 -101.33921875 55.716875 -101.8359375 56.34375 C-103.98702526 59.40435809 -104.13020833 61.35108235 -104.14717102 65.05950928 C-104.15432632 66.13059937 -104.16148163 67.20168945 -104.16885376 68.30523682 C-104.17154266 69.48551453 -104.17423157 70.66579224 -104.17700195 71.88183594 C-104.18357315 73.12094727 -104.19014435 74.36005859 -104.19691467 75.63671875 C-104.21668579 79.75260659 -104.2283188 83.86845541 -104.23828125 87.984375 C-104.24232872 89.40139028 -104.24644564 90.81840535 -104.25063133 92.23542023 C-104.26968596 98.89360373 -104.28391555 105.55177614 -104.2922433 112.20998168 C-104.30201262 119.89386052 -104.32832269 127.57745106 -104.36874419 135.26122832 C-104.39891786 141.2010185 -104.41371341 147.14072611 -104.41702431 153.08059144 C-104.41937373 156.62774837 -104.42831909 160.1745974 -104.45348549 163.72167206 C-104.4811251 167.68140354 -104.47693119 171.64075677 -104.4699707 175.60058594 C-104.48278076 176.77276672 -104.49559082 177.94494751 -104.50878906 179.15264893 C-104.46857755 185.42062988 -104.24899748 189.25745293 -100 194 C-95.41295929 198.35180785 -91.49533898 199.11712027 -85.32122803 199.14044189 C-84.41021835 199.14615204 -83.49920868 199.15186218 -82.56059265 199.15774536 C-81.57347794 199.15886322 -80.58636322 199.15998108 -79.56933594 199.16113281 C-78.51992325 199.16609772 -77.47051056 199.17106262 -76.38929749 199.17617798 C-72.92098329 199.19077088 -69.45271484 199.19759697 -65.984375 199.203125 C-63.56927489 199.20887896 -61.1541748 199.21463666 -58.73907471 199.22039795 C-53.67516874 199.23089987 -48.61127861 199.23674779 -43.54736328 199.24023438 C-37.0700258 199.24571633 -30.59289881 199.26974166 -24.11562729 199.29820633 C-19.12609248 199.31686318 -14.13660806 199.32203995 -9.14704132 199.32357025 C-6.75971578 199.32659058 -4.37239099 199.33459807 -1.98509979 199.34775543 C1.36068066 199.3648787 4.70595088 199.36292007 8.05175781 199.35644531 C9.5202845 199.37026749 9.5202845 199.37026749 11.01847839 199.3843689 C17.40840091 199.34578397 24.62844022 199.01219538 29.62520218 194.54802322 C33.01372302 190.57850027 34.12406341 188.08199158 34.14044189 182.97845459 C34.14615204 181.91577866 34.15186218 180.85310272 34.15774536 179.75822449 C34.15886322 178.58729752 34.15998108 177.41637054 34.16113281 176.20996094 C34.16609772 174.98060318 34.17106262 173.75124542 34.17617798 172.4846344 C34.18830092 169.10634265 34.19574882 165.72811293 34.20018864 162.34980679 C34.20311887 160.23878906 34.20722365 158.12777677 34.21169281 156.01676178 C34.22537166 149.41090061 34.23503566 142.80505186 34.2388947 136.1991775 C34.24337254 128.57591111 34.2609059 120.95282429 34.2898953 113.32961249 C34.31152644 107.4365298 34.32159979 101.54349757 34.32293582 95.6503756 C34.3239831 92.13122423 34.32987384 88.61224156 34.34775543 85.09313202 C34.36732834 81.16456846 34.3629414 77.23622831 34.35644531 73.30761719 C34.37026749 71.56337212 34.37026749 71.56337212 34.3843689 69.78388977 C34.34810244 62.7902671 33.91021262 57.91021262 28.75 52.75 C22.27985827 48.63263708 15.75217242 48.71056485 8.31054688 48.74121094 C7.25762955 48.7377063 6.20471222 48.73420166 5.11988831 48.73059082 C1.65277438 48.72181607 -1.81413413 48.72760772 -5.28125 48.734375 C-7.69828327 48.73302713 -10.11531628 48.73108558 -12.53234863 48.72857666 C-17.59271837 48.72563116 -22.6530174 48.72990466 -27.71337891 48.73925781 C-34.19306314 48.75065192 -40.67258167 48.74408939 -47.15225983 48.73211288 C-52.14171594 48.72487885 -57.1311329 48.72718933 -62.12059021 48.73236847 C-64.50955729 48.73370069 -66.89852795 48.73207225 -69.28749084 48.72740936 C-72.62860503 48.72231886 -75.9694525 48.73009009 -79.31054688 48.74121094 C-80.29361313 48.73716248 -81.27667938 48.73311401 -82.28953552 48.72894287 C-91.21072313 48.72345672 -91.21072313 48.72345672 -98.9609375 52.65625 Z " fill="#2E2E2E" transform="translate(163,4)"/>
<path d="M0 0 C0.95473709 -0.00860046 1.90947418 -0.01720093 2.8931427 -0.02606201 C4.46955032 -0.03245193 4.46955032 -0.03245193 6.07780457 -0.03897095 C7.1819722 -0.04714844 8.28613983 -0.05532593 9.42376709 -0.06375122 C13.08993481 -0.08863212 16.75606377 -0.10512725 20.42228699 -0.11953735 C21.67192419 -0.12486103 22.92156139 -0.13018471 24.20906639 -0.13566971 C29.45994258 -0.15690402 34.71081292 -0.17603413 39.96172047 -0.1872921 C47.48590456 -0.20353032 55.00957215 -0.2367048 62.53356153 -0.29369295 C68.46235832 -0.33706704 74.39103983 -0.35303759 80.31999779 -0.35942459 C82.8418362 -0.36615392 85.3636666 -0.38141923 87.88540077 -0.4053154 C91.41217707 -0.43683129 94.93764396 -0.43702348 98.46452332 -0.42959595 C99.50938904 -0.44600128 100.55425476 -0.46240662 101.63078308 -0.47930908 C106.02692178 -0.44134259 108.7529923 -0.25328404 112.61434937 1.9541626 C115.44787466 6.85259367 115.14614678 11.36756068 115.08049011 16.93319702 C115.08603912 18.12558487 115.09158813 19.31797272 115.0973053 20.54649353 C115.10708163 23.80920559 115.09451751 27.07087643 115.07102013 30.33349037 C115.05088018 33.7517728 115.05679231 37.1700212 115.05912781 40.58834839 C115.05907427 46.32827659 115.03933785 52.06787525 115.00724792 57.80770874 C114.97035633 64.4385263 114.96157267 71.06891229 114.96854544 77.69981909 C114.97485639 84.08521176 114.96408527 90.47045683 114.94458008 96.8558197 C114.93641722 99.57022713 114.93369447 102.284559 114.93527222 104.99897766 C114.93347649 108.79109319 114.91211229 112.5825939 114.88517761 116.37460327 C114.88810822 117.49891251 114.89103882 118.62322174 114.89405823 119.78160095 C114.88270844 120.81618942 114.87135864 121.85077789 114.85966492 122.91671753 C114.85407185 124.26062939 114.85407185 124.26062939 114.84836578 125.63169098 C114.37873354 128.72351998 113.27593188 130.62496494 111.46525574 133.15390015 C109.0753228 134.34886662 107.59227162 134.28739165 104.92378235 134.30107117 C103.48950897 134.31180412 103.48950897 134.31180412 102.02626038 134.32275391 C100.97375092 134.32544281 99.92124146 134.32813171 98.83683777 134.3309021 C97.73106384 134.3374733 96.62528992 134.34404449 95.48600769 134.35081482 C91.81502725 134.37057809 88.14408774 134.38221601 84.47306824 134.3921814 C82.59674021 134.39829469 82.59674021 134.39829469 80.68250656 134.40453148 C74.74727594 134.4232495 68.8120584 134.43781377 62.87680542 134.44614345 C56.02375851 134.45591986 49.17103425 134.48225014 42.31810105 134.52264434 C36.38395267 134.55642364 30.44988355 134.56828678 24.51563644 134.57234764 C21.99019556 134.57723113 19.46475856 134.58889477 16.93938065 134.60738564 C13.41014374 134.63162429 9.88175669 134.63083985 6.35246277 134.62387085 C4.77977127 134.64308594 4.77977127 134.64308594 3.17530823 134.66268921 C-3.90558465 134.61156912 -3.90558465 134.61156912 -7.1526947 132.24952698 C-9.3004265 128.99288227 -9.66224225 127.19397679 -9.67518616 123.31544495 C-9.6808963 122.29339462 -9.68660645 121.2713443 -9.69248962 120.21832275 C-9.69360748 119.09257843 -9.69472534 117.96683411 -9.69587708 116.80697632 C-9.70084198 115.62478012 -9.70580688 114.44258392 -9.71092224 113.2245636 C-9.72304361 109.97651018 -9.73049252 106.72849279 -9.7349329 103.48042083 C-9.73786307 101.45115553 -9.74196781 99.42189589 -9.74643707 97.39263344 C-9.76011449 91.04359754 -9.76977956 84.69457457 -9.77363896 78.34552497 C-9.77811844 71.01655813 -9.79566001 63.68777792 -9.82463956 56.35886782 C-9.84626054 50.69424882 -9.85634349 45.0296823 -9.85768008 39.36502248 C-9.85872796 35.98171621 -9.86463158 32.59858532 -9.88249969 29.21532249 C-9.89951831 25.43973969 -9.89768983 21.66461296 -9.89118958 17.88900757 C-9.90040436 16.76933594 -9.90961914 15.64966431 -9.91911316 14.49606323 C-9.91354401 13.46555344 -9.90797485 12.43504364 -9.90223694 11.37330627 C-9.9037035 10.48084292 -9.90517006 9.58837957 -9.90668106 8.66887188 C-9.44913554 5.57502891 -8.34589999 3.68210492 -6.53474426 1.15390015 C-4.14804318 -0.0394504 -2.66479021 0.01784013 0 0 Z M40.46525574 16.15390015 C35.60839396 18.8476218 31.93272815 22.43808911 28.09025574 26.40390015 C27.27234558 27.23534546 27.27234558 27.23534546 26.43791199 28.08358765 C25.10902597 29.43578746 23.78647026 30.79420365 22.46525574 32.15390015 C21.99474792 31.74397827 21.52424011 31.3340564 21.03947449 30.91171265 C20.4168573 30.37288452 19.79424011 29.8340564 19.15275574 29.27890015 C18.23043152 28.47839233 18.23043152 28.47839233 17.28947449 27.66171265 C15.33027362 25.98985545 15.33027362 25.98985545 12.46525574 24.15390015 C9.81893287 24.46607654 9.81893287 24.46607654 7.46525574 25.15390015 C6.98034541 27.38795527 6.98034541 27.38795527 7.46525574 30.15390015 C9.32578325 32.45908203 11.0865378 34.38409336 13.21525574 36.40390015 C13.75408386 36.9453064 14.29291199 37.48671265 14.84806824 38.04452515 C18.57189636 41.84776353 18.57189636 41.84776353 23.46525574 43.15390015 C26.00894898 41.40562553 26.00894898 41.40562553 28.48478699 38.83358765 C28.94761581 38.37791412 29.41044464 37.9222406 29.88729858 37.45275879 C30.86247644 36.48536537 31.83128807 35.51151842 32.79411316 34.53182983 C34.27107116 33.03567162 35.77494202 31.57111541 37.28361511 30.10702515 C38.2274466 29.16348406 39.16956444 28.21822503 40.10978699 27.27108765 C40.96934998 26.41112183 41.82891296 25.55115601 42.71452332 24.66513062 C44.77598733 22.27567016 44.77598733 22.27567016 44.23747253 19.33407593 C43.98264099 18.61461792 43.72780945 17.89515991 43.46525574 17.15390015 C42.47525574 16.82390015 41.48525574 16.49390015 40.46525574 16.15390015 Z M56.46525574 29.15390015 C55.80525574 30.47390015 55.14525574 31.79390015 54.46525574 33.15390015 C55.45525574 34.63890015 55.45525574 34.63890015 56.46525574 36.15390015 C59.50431319 36.43287053 62.33682871 36.52557379 65.37541199 36.48202515 C66.25805222 36.48015198 67.14069244 36.47827881 68.05007935 36.47634888 C69.91710687 36.46962111 71.78412012 36.45569228 73.65104675 36.43515015 C76.5195871 36.40398888 79.38757854 36.39418034 82.25627136 36.38827515 C84.06682498 36.37910581 85.87737298 36.36873026 87.68791199 36.35702515 C88.98318565 36.35065033 88.98318565 36.35065033 90.30462646 36.34414673 C94.19865796 36.67893266 94.19865796 36.67893266 97.46525574 35.15390015 C97.6319224 32.65390015 97.6319224 32.65390015 97.46525574 30.15390015 C96.25453778 28.71465147 96.25453778 28.71465147 92.67985535 29.04037476 C90.99242844 29.04053392 89.30499669 29.04623097 87.61759949 29.0562439 C86.73117264 29.05765884 85.84474579 29.05907379 84.93145752 29.06053162 C82.08852319 29.06614799 79.24566643 29.07870323 76.40275574 29.09140015 C74.48023083 29.09641304 72.55770469 29.10097631 70.63517761 29.10507202 C65.91184025 29.11612274 61.18856116 29.13339832 56.46525574 29.15390015 Z M36.54240417 55.62265015 C35.56835632 56.6281189 35.56835632 56.6281189 34.57463074 57.65390015 C33.86564636 58.37577515 33.15666199 59.09765015 32.42619324 59.84140015 C31.69658386 60.60452515 30.96697449 61.36765015 30.21525574 62.15390015 C29.47017761 62.91702515 28.72509949 63.68015015 27.95744324 64.46640015 C26.1174339 66.35358921 24.28738347 68.24946644 22.46525574 70.15390015 C21.35973684 69.21799511 20.2559012 68.28010157 19.15275574 67.34140015 C18.53787292 66.81932983 17.92299011 66.29725952 17.28947449 65.7593689 C15.46525574 64.15390015 15.46525574 64.15390015 13.90275574 62.43515015 C13.42838074 62.01233765 12.95400574 61.58952515 12.46525574 61.15390015 C9.81059524 61.38433879 9.81059524 61.38433879 7.46525574 62.15390015 C6.94216654 64.36035418 6.94216654 64.36035418 7.46525574 67.15390015 C9.24594334 69.73135188 11.4152355 71.84689552 13.65275574 74.02890015 C14.23090027 74.63475952 14.8090448 75.2406189 15.40470886 75.86483765 C15.97511902 76.43202515 16.54552917 76.99921265 17.13322449 77.58358765 C17.65166931 78.10162964 18.17011414 78.61967163 18.70426941 79.15341187 C20.48095013 80.36804288 20.48095013 80.36804288 22.89909363 80.05575562 C25.9844052 78.97144956 27.54014948 77.59577662 29.85588074 75.29452515 C30.64736511 74.50819702 31.43884949 73.7218689 32.25431824 72.91171265 C33.06642761 72.08413452 33.87853699 71.2565564 34.71525574 70.40390015 C35.54283386 69.59179077 36.37041199 68.7796814 37.22306824 67.94296265 C38.40256042 66.75573608 38.40256042 66.75573608 39.60588074 65.54452515 C40.32292175 64.82297241 41.03996277 64.10141968 41.7787323 63.35800171 C43.67699068 60.87718575 44.28830711 59.2627713 44.46525574 56.15390015 C43.80525574 55.49390015 43.14525574 54.83390015 42.46525574 54.15390015 C38.59177821 53.7492231 38.59177821 53.7492231 36.54240417 55.62265015 Z M54.46525574 68.15390015 C54.56032964 70.20194295 54.56032964 70.20194295 55.46525574 72.15390015 C59.27643919 74.69468911 62.36608747 74.44222312 66.78166199 74.41952515 C67.59392746 74.4214386 68.40619293 74.42335205 69.24307251 74.42532349 C70.95865692 74.42668361 72.67425169 74.42299918 74.38981628 74.41464233 C77.02131643 74.40392637 79.65213603 74.41455035 82.28361511 74.42733765 C83.94963225 74.42601629 85.61564896 74.4234544 87.28166199 74.41952515 C88.07125809 74.42357361 88.86085419 74.42762207 89.67437744 74.43179321 C94.03666229 74.56249962 94.03666229 74.56249962 97.46525574 72.15390015 C97.63213021 69.57035796 97.63213021 69.57035796 97.46525574 67.15390015 C94.15172828 65.49713642 90.45185212 65.99077771 86.80900574 65.9859314 C85.52189697 65.9809388 85.52189697 65.9809388 84.20878601 65.97584534 C82.39307695 65.97077877 80.57735857 65.96843693 78.76164246 65.96859741 C75.97649404 65.96640898 73.19174038 65.94824526 70.40666199 65.92929077 C68.6449446 65.92635725 66.88322532 65.92437218 65.12150574 65.9234314 C64.28502502 65.91624588 63.44854431 65.90906036 62.5867157 65.9016571 C58.05063409 65.71720134 58.05063409 65.71720134 54.46525574 68.15390015 Z M37.64103699 92.27108765 C37.02615417 92.85116577 36.41127136 93.4312439 35.77775574 94.02890015 C35.09326355 94.66698608 34.40877136 95.30507202 33.70353699 95.9624939 C29.92502201 99.66187767 26.16576089 103.37630114 22.46525574 107.15390015 C21.33937559 106.19660099 20.21458424 105.2380212 19.09025574 104.27890015 C18.46377136 103.74522827 17.83728699 103.2115564 17.19181824 102.66171265 C15.90688923 101.53958007 14.67153598 100.36018039 13.46525574 99.15390015 C10.92335572 98.90382285 10.92335572 98.90382285 8.46525574 99.15390015 C7.24967321 100.1826624 7.24967321 100.1826624 7.04728699 102.3218689 C7.66328396 106.49568019 10.23752211 108.65369525 13.15275574 111.46640015 C13.68320496 112.0161853 14.21365417 112.56597046 14.76017761 113.13241577 C17.84563329 116.183615 17.84563329 116.183615 21.85368347 117.56942749 C27.36906823 116.69187445 31.07356182 111.29401809 34.84025574 107.46640015 C35.7799823 106.55438843 36.71970886 105.64237671 37.68791199 104.70272827 C39.01242371 103.37338257 39.01242371 103.37338257 40.36369324 102.0171814 C41.5806488 100.79962158 41.5806488 100.79962158 42.82218933 99.5574646 C44.77198723 97.25007545 44.77198723 97.25007545 44.22160339 94.34994507 C43.8472113 93.26290283 43.8472113 93.26290283 43.46525574 92.15390015 C40.96377469 91.19306637 39.98649028 90.83468585 37.64103699 92.27108765 Z M55.46525574 104.15390015 C54.46047537 106.00613685 54.46047537 106.00613685 54.46525574 108.15390015 C55.67560783 109.84796917 55.67560783 109.84796917 57.46525574 111.15390015 C60.46636627 111.42785422 63.25553202 111.52639585 66.25431824 111.48202515 C67.54286209 111.47921539 67.54286209 111.47921539 68.85743713 111.47634888 C70.671411 111.46962992 72.48537042 111.45571848 74.29924011 111.43515015 C77.08648528 111.40394236 79.87316554 111.39417441 82.66056824 111.38827515 C84.42099185 111.37910742 86.18140968 111.36873238 87.94181824 111.35702515 C89.19957565 111.35065033 89.19957565 111.35065033 90.48274231 111.34414673 C94.28259125 111.66303476 94.28259125 111.66303476 97.46525574 110.15390015 C97.79869125 107.69597986 97.79869125 107.69597986 97.46525574 105.15390015 C93.70527189 102.64724425 90.75351783 102.88243471 86.40275574 102.9234314 C85.61505798 102.92388962 84.82736023 102.92434784 84.01579285 102.92481995 C82.35147087 102.92783905 80.68715164 102.93571518 79.02287292 102.9480896 C76.47491954 102.96633096 73.92733007 102.96859931 71.37931824 102.96835327 C69.76212759 102.97326932 68.14493942 102.97909802 66.52775574 102.9859314 C65.7651947 102.98704422 65.00263367 102.98815704 64.21696472 102.98930359 C61.0391345 103.017825 58.50183553 103.14170688 55.46525574 104.15390015 Z " fill="#2D2D2D" transform="translate(75.53474426269531,60.846099853515625)"/>
</svg>
